HIERARCHY
ROOT Hips
{
	OFFSET 0.000000 0.000000 0.000000 
	CHANNELS 6 Xposition Yposition Zposition Zrotation Yrotation Xrotation
	JOINT LeftUpLeg
	{
		OFFSET 1.363060 -1.794630 0.839290 
		CHANNELS 3 Zrotation Yrotation Xrotation
		JOINT LeftLeg
		{
			OFFSET 2.448110 -6.726130 0.000000 
			CHANNELS 3 Zrotation Yrotation Xrotation
			JOINT LeftFoot
			{
				OFFSET 2.562200 -7.039590 0.000000 
				CHANNELS 3 Zrotation Yrotation Xrotation
				JOINT LeftToeBase
				{
					OFFSET 0.157640 -0.433110 2.322550 
					CHANNELS 3 Zrotation Yrotation Xrotation
					End Site
					{
						OFFSET 0.000000 0.000000 0.000000 
					}
				}
			}
		}
	}
	JOINT RightUpLeg
	{
		OFFSET -1.305520 -1.794630 0.839290 
		CHANNELS 3 Zrotation Yrotation Xrotation
		JOINT RightLeg
		{
			OFFSET -2.542530 -6.985550 0.000000 
			CHANNELS 3 Zrotation Yrotation Xrotation
			JOINT RightFoot
			{
				OFFSET -2.568260 -7.056230 0.000000 
				CHANNELS 3 Zrotation Yrotation Xrotation
				JOINT RightToeBase
				{
					OFFSET -0.164730 -0.452590 2.363150 
					CHANNELS 3 Zrotation Yrotation Xrotation
					End Site
					{
						OFFSET 0.000000 0.000000 0.000000 
					}
				}
			}
		}
	}
	JOINT Spine
	{
		OFFSET 0.028270 2.035590 -0.193380 
		CHANNELS 3 Zrotation Yrotation Xrotation
		JOINT Spine1
		{
			OFFSET 0.056720 2.048850 -0.042750 
			CHANNELS 3 Zrotation Yrotation Xrotation
			JOINT Neck1
			{
				OFFSET -0.054170 1.746240 0.172020 
				CHANNELS 3 Zrotation Yrotation Xrotation
				JOINT Head
				{
					OFFSET 0.104070 1.761360 -0.123970 
					CHANNELS 3 Zrotation Yrotation Xrotation
					End Site
					{
						OFFSET 0.000000 0.000000 0.000000 
					}
				}
			}
			JOINT LeftArm
			{
				OFFSET 3.362410 1.200890 -0.311210 
				CHANNELS 3 Zrotation Yrotation Xrotation
				JOINT LeftForeArm
				{
					OFFSET 4.983000 -0.000000 -0.000000 
					CHANNELS 3 Zrotation Yrotation Xrotation
					JOINT LeftHand
					{
						OFFSET 3.483560 -0.000000 -0.000000 
						CHANNELS 3 Zrotation Yrotation Xrotation
						JOINT LeftHandIndex1
						{
							OFFSET 0.715260 -0.000000 -0.000000 
							CHANNELS 3 Zrotation Yrotation Xrotation
							End Site
							{
								OFFSET 0.000000 0.000000 0.000000 
							}
						}
					}
				}
			}
			JOINT RightArm
			{
				OFFSET -3.136600 1.374050 -0.404650 
				CHANNELS 3 Zrotation Yrotation Xrotation
				JOINT RightForeArm
				{
					OFFSET -5.241900 -0.000000 -0.000000 
					CHANNELS 3 Zrotation Yrotation Xrotation
					JOINT RightHand
					{
						OFFSET -3.444170 -0.000000 -0.000000 
						CHANNELS 3 Zrotation Yrotation Xrotation
						JOINT RightHandIndex1
						{
							OFFSET -0.622530 -0.000000 -0.000000 
							CHANNELS 3 Zrotation Yrotation Xrotation
							End Site
							{
								OFFSET 0.000000 0.000000 0.000000 
							}
						}
					}
				}
			}
		}
	}
}
MOTION
Frames: 18
Frame Time: 0.041667
9.910335 17.811735 48.067532 -178.067285 -3.361880 179.337554 -18.221962 -25.337383 -2.271764 -1.566237 9.650846 27.538250 -1.522748 7.245753 -3.669448 3.275700 -11.128500 -32.714300 28.611617 16.607988 -1.075484 1.972421 -8.986852 28.039250 5.562819 -23.989685 -26.327394 -1.492200 -7.716900 21.857400 -1.494978 1.274991 0.396215 -7.346180 -0.173634 -12.573681 12.472902 -8.247758 29.019770 2.261800 -3.193200 11.182200 -88.275401 12.105576 27.784660 25.312992 -25.392979 -7.130180 1.474735 0.921097 12.476842 -7.125000 0.000000 0.000000 90.279461 -10.405375 47.138563 -20.686263 24.044042 -6.353218 1.273357 0.914349 9.619126 7.125000 0.000000 0.000000 
9.921006 17.822762 48.065516 -178.119233 -3.145469 179.738900 -18.167211 -25.668533 -2.402433 -1.605673 9.607826 27.365032 -1.856487 7.982502 -3.577651 3.648600 -11.677500 -34.600500 28.515635 17.139397 -1.270937 2.012681 -8.983696 27.909050 5.723642 -24.404696 -26.366006 -1.484200 -7.697000 21.797500 -1.269245 1.392716 0.431910 -7.072383 -0.069936 -12.189984 12.305215 -8.171778 28.885703 2.203900 -3.170700 11.129700 -88.448406 11.818167 27.627483 25.317679 -25.426480 -7.167563 1.555997 0.883334 12.257451 -7.125000 0.000000 0.000000 89.997734 -10.025079 47.174699 -20.601065 23.937509 -6.320091 1.271175 0.917850 9.580260 7.125000 0.000000 0.000000 
9.930018 17.829876 48.060655 -178.088084 -2.871609 -179.962665 -18.002402 -25.675593 -2.617896 -1.637762 9.565877 27.206352 -2.096570 8.507115 -3.340885 3.986300 -12.142200 -36.236900 28.477283 17.465889 -1.447057 2.041490 -8.981039 27.813215 5.772286 -24.524229 -26.374066 -1.484300 -7.697400 21.798600 -1.002643 1.525239 0.505348 -6.834744 0.033367 -11.839196 12.239297 -8.099624 28.810272 2.197000 -3.144300 11.115600 -88.622313 11.653942 27.548241 25.462740 -25.600518 -7.272068 1.587477 0.871623 11.980556 -7.125000 0.000000 0.000000 89.732881 -9.791411 47.066202 -20.443467 23.730991 -6.236950 1.285932 0.896932 9.979516 7.125000 0.000000 0.000000 
9.938318 17.841140 48.054963 -178.115024 -2.566858 -179.574972 -17.862566 -25.626989 -2.908795 -1.675739 9.517928 27.022218 -2.296485 8.944377 -3.114801 4.227900 -12.457700 -37.370900 28.315343 17.748858 -1.744903 2.064783 -8.985515 27.715964 5.800330 -24.496972 -26.205711 -1.520500 -7.786400 22.067200 -0.643264 1.698167 0.428558 -6.479529 0.165385 -11.538372 12.114409 -8.059329 28.760498 2.169100 -3.147200 11.086900 -88.894691 11.628471 27.613861 25.645071 -25.779382 -7.373265 1.549303 0.893970 12.018721 -7.125000 0.000000 0.000000 89.368228 -9.728237 47.047731 -20.340708 23.591137 -6.175987 1.296453 0.877694 10.174702 7.125000 0.000000 0.000000 
9.953139 17.862127 48.046782 -178.190529 -2.113155 -178.888028 -17.599487 -25.324352 -3.587997 -1.707445 9.481167 26.836541 -2.503205 9.390594 -2.623139 4.450400 -12.736800 -38.391000 27.992311 18.142593 -2.335680 2.092977 -9.004457 27.573104 5.886923 -24.489453 -25.781370 -1.494700 -7.722900 21.875500 0.012170 1.851809 0.213184 -5.812393 0.318993 -11.108759 11.586608 -7.832330 28.622172 1.972700 -3.086100 10.981000 -89.396303 11.501886 27.363887 25.781289 -25.890749 -7.443938 1.464804 0.958794 11.995839 -7.125000 0.000000 0.000000 88.738158 -9.618708 47.313736 -20.299231 23.530347 -6.151187 1.297013 0.865899 10.212350 7.125000 0.000000 0.000000 
9.968434 17.880861 48.038126 -178.261051 -1.688147 -178.214601 -17.352355 -25.025531 -4.261705 -1.736344 9.457799 26.705232 -2.515713 9.420712 -2.550207 4.414400 -12.692300 -38.227400 27.676606 18.537621 -2.898723 2.117269 -9.018066 27.415720 5.974410 -24.430713 -25.215760 -1.452700 -7.618400 21.561000 0.807232 1.945891 -0.098337 -5.051175 0.440900 -10.796460 10.750388 -7.509339 28.478266 1.642200 -2.995100 10.852700 -90.010647 11.431753 26.927547 25.843867 -25.955539 -7.491386 1.531883 0.903122 11.818078 -7.125000 0.000000 0.000000 88.051945 -9.663324 47.592498 -20.310332 23.532024 -6.147587 1.299944 0.843873 10.538332 7.125000 0.000000 0.000000 
9.974126 17.881929 48.040972 -178.260616 -1.510198 -178.153134 -17.309807 -24.898294 -4.357566 -1.744855 9.452626 26.675629 -2.555463 9.512419 -2.546004 4.459200 -12.747500 -38.430600 27.665207 18.649274 -2.898294 2.127144 -8.995964 27.325462 6.014371 -24.412422 -24.938912 -1.445300 -7.599900 21.505400 0.837136 2.051932 -0.224055 -5.018003 0.493142 -10.876117 10.573844 -7.448125 28.352239 1.548600 -2.972500 10.757400 -90.028981 11.499606 26.885653 25.913621 -26.030407 -7.527144 1.516065 0.908967 11.766417 -7.125000 0.000000 0.000000 88.042772 -9.700434 47.437280 -20.290796 23.502714 -6.122703 1.301250 0.829547 11.071373 7.125000 0.000000 0.000000 
9.976853 17.884181 48.047612 -178.077234 -1.539981 -178.048507 -17.105680 -25.153109 -4.387279 -1.742245 9.452272 26.662004 -2.644818 9.712853 -2.599353 4.427900 -12.709000 -38.288600 27.828133 18.681025 -2.976558 2.152857 -8.976137 27.220837 6.046765 -24.491786 -24.893848 -1.435200 -7.574500 21.428900 0.935619 2.106062 -0.344605 -5.097595 0.501179 -10.907950 10.812932 -7.410477 28.211300 1.661700 -2.951900 10.675300 -90.011548 11.527754 26.967593 25.945738 -26.056979 -7.523802 1.574716 0.819961 11.735089 -7.125000 0.000000 0.000000 88.024639 -9.674244 47.309495 -20.236018 23.426124 -6.081765 1.307650 0.818234 11.335912 7.125000 0.000000 0.000000 
9.982307 17.881929 48.047849 -177.915896 -1.821187 -178.058599 -16.969852 -25.545440 -4.253800 -1.728986 9.456862 26.688006 -2.657173 9.737308 -2.662907 4.334800 -12.593000 -37.863600 28.075696 18.713676 -2.874491 2.182272 -8.947750 27.141993 6.059828 -24.662852 -25.161421 -1.451900 -7.616400 21.554900 1.040167 2.031488 -0.362011 -5.118108 0.456014 -10.905374 11.084481 -7.354894 28.141284 1.789100 -2.914000 10.640300 -89.953650 11.547358 27.111562 25.986588 -26.084060 -7.522653 1.600203 0.756960 11.552097 -7.125000 0.000000 0.000000 88.048047 -9.617763 47.054773 -20.143442 23.296854 -6.012712 1.322462 0.795648 11.824008 7.125000 0.000000 0.000000 
9.984204 17.882996 48.051406 -177.846197 -2.012326 -178.057332 -16.836494 -25.326339 -4.447811 -1.712021 9.470307 26.732746 -2.493461 9.363245 -2.412264 4.260400 -12.499000 -37.521100 28.151964 18.716012 -2.852253 2.203589 -8.929506 27.090982 6.090339 -24.852330 -25.406025 -1.443400 -7.595200 21.491000 1.358947 1.975877 -0.314020 -4.940578 0.445629 -10.878420 11.036398 -7.218397 28.256646 1.803800 -2.856200 10.702000 -90.114744 11.520985 27.227496 26.058710 -26.145153 -7.556323 1.580303 0.757805 11.450696 -7.125000 0.000000 0.000000 87.808159 -9.560156 46.897565 -20.089647 23.212954 -5.960148 1.335441 0.770610 12.242510 7.125000 0.000000 0.000000 
9.986457 17.887501 48.055319 -177.897318 -2.022495 -178.001831 -16.818859 -25.020148 -4.679258 -1.707878 9.475934 26.742809 -2.407111 9.164432 -2.206308 4.299600 -12.548800 -37.702100 28.026033 18.713096 -2.948990 2.209929 -8.928792 27.074220 6.106215 -24.899851 -25.457188 -1.440000 -7.586500 21.465000 1.722902 1.933078 -0.166667 -4.643068 0.461193 -10.730957 10.838906 -6.961089 28.415842 1.768600 -2.746400 10.798200 -90.335539 11.388733 27.201870 26.059660 -26.129290 -7.557584 1.540312 0.799676 11.609541 -7.125000 0.000000 0.000000 87.361693 -9.443323 47.082345 -20.052433 23.154301 -5.928851 1.345971 0.750869 12.453440 7.125000 0.000000 0.000000 
9.987524 17.886790 48.057572 -178.051449 -2.109404 -178.084138 -17.016049 -25.042985 -4.579246 -1.710123 9.477464 26.752486 -2.415984 9.183770 -2.252535 4.384200 -12.654800 -38.089600 27.872758 18.606657 -2.936676 2.199580 -8.931662 27.105230 6.137322 -24.954560 -25.437581 -1.464500 -7.648100 21.650300 1.677008 1.907597 -0.119002 -4.599060 0.461557 -10.778496 11.018717 -6.745100 28.229341 1.857200 -2.632400 10.696200 -90.313971 11.308926 27.156934 25.915799 -25.978791 -7.487823 1.526009 0.840685 11.899978 -7.125000 0.000000 0.000000 87.212789 -9.394909 47.158761 -19.991829 23.072793 -5.885557 1.350887 0.737641 12.838520 7.125000 0.000000 0.000000 
9.989303 17.894616 48.061485 -178.089320 -1.871401 -177.794177 -16.927562 -24.982624 -4.861361 -1.724631 9.475695 26.696721 -2.487425 9.351502 -2.276894 4.436900 -12.720100 -38.329500 27.695214 18.590292 -3.324202 2.190822 -8.964104 27.095296 6.213725 -24.955770 -25.019680 -1.387800 -7.453700 21.066700 1.436663 2.126741 -0.526931 -4.801753 0.534149 -10.917586 11.136155 -6.589825 28.047649 1.885900 -2.543500 10.560700 -90.150365 11.415693 27.148949 25.739015 -25.808957 -7.414261 1.540601 0.872052 12.062983 -7.125000 0.000000 0.000000 87.435232 -9.488460 46.548914 -19.874565 22.900846 -5.775861 1.359936 0.709548 13.859011 7.125000 0.000000 0.000000 
9.993690 17.885011 48.056979 -178.054434 -2.392339 -178.117669 -16.978536 -25.041543 -4.569062 -1.713921 9.465195 26.718099 -2.320855 8.966461 -2.081261 4.449600 -12.735800 -38.387300 27.925585 18.417470 -2.971288 2.191448 -8.953019 27.179416 6.115876 -24.991399 -25.629440 -1.421200 -7.539100 21.322600 1.504577 1.985032 -0.468779 -4.784785 0.464233 -11.101182 11.070960 -6.367509 28.020484 1.856600 -2.430400 10.517500 -90.139975 11.432133 27.135336 25.547295 -25.613555 -7.326970 1.552184 0.895421 12.232408 -7.125000 0.000000 0.000000 87.493635 -9.574393 46.330700 -19.802063 22.814349 -5.741813 1.365453 0.699159 14.172509 7.125000 0.000000 0.000000 
9.993808 17.892007 48.055793 -178.006281 -2.197570 -177.804915 -16.823909 -25.064953 -4.841369 -1.724643 9.458191 26.657608 -2.385653 9.114587 -2.052137 4.412300 -12.689700 -38.217700 27.820609 18.474391 -3.324614 2.192264 -8.979604 27.156344 6.142462 -24.930503 -25.354662 -1.408300 -7.506200 21.224000 1.590385 2.155335 -0.657982 -4.793399 0.534060 -10.987044 11.088113 -6.105588 28.068657 1.871400 -2.284500 10.544000 -90.111092 11.388839 27.268470 25.437966 -25.489438 -7.270738 1.572338 0.887676 12.282582 -7.125000 0.000000 0.000000 87.470622 -9.559975 46.285525 -19.721214 22.712362 -5.715179 1.375400 0.688474 14.348120 7.125000 0.000000 0.000000 
9.997366 17.882403 48.052355 -178.019312 -2.604837 -178.122546 -16.931252 -25.125859 -4.539877 -1.716667 9.450576 26.681383 -2.284351 8.878517 -1.940224 4.509000 -12.808500 -38.655800 28.002193 18.422620 -2.945407 2.187729 -8.963535 27.220552 6.052917 -24.893189 -25.752654 -1.557400 -7.875900 22.337900 1.542130 2.017415 -0.430447 -4.840214 0.469685 -11.005365 11.190049 -5.769808 27.911965 1.913800 -2.100100 10.461900 -90.012032 11.353307 27.346939 25.323739 -25.371842 -7.216357 1.585902 0.892507 12.375835 -7.125000 0.000000 0.000000 87.484074 -9.515133 46.325176 -19.800473 22.818800 -5.764915 1.365677 0.702145 14.182117 7.125000 0.000000 0.000000 
9.996891 17.891177 48.058402 -178.104433 -2.199161 -177.862575 -16.930213 -24.944655 -4.831589 -1.733011 9.453044 26.636757 -2.439196 9.234935 -2.028026 4.581000 -12.895800 -38.979600 27.735648 18.468833 -3.303119 2.169101 -8.991366 27.203260 6.110874 -24.724730 -25.079523 -1.495500 -7.725000 21.881700 1.494487 2.238686 -0.570423 -4.884602 0.571977 -10.956631 11.223286 -5.414128 27.726911 1.934100 -1.922800 10.340900 -89.996864 11.299085 27.221732 25.119434 -25.150021 -7.112517 1.595321 0.909949 12.693244 -7.125000 0.000000 0.000000 87.454445 -9.465533 46.414475 -19.880003 22.916872 -5.802422 1.355518 0.716254 13.918728 7.125000 0.000000 0.000000 
9.997840 17.888450 48.058639 -178.189736 -2.600535 -178.042140 -17.058399 -24.959434 -4.683468 -1.731713 9.445407 26.636300 -2.336794 8.997767 -1.891995 4.600600 -12.919400 -39.067400 27.729512 18.302824 -3.142042 2.173260 -8.982085 27.258343 6.022057 -24.710783 -25.585487 -1.507800 -7.755300 21.973300 1.461946 2.094256 -0.475110 -4.876728 0.504046 -11.023604 11.290291 -5.017572 27.798166 1.962100 -1.694700 10.374300 -90.033796 11.279910 27.031063 24.959183 -24.969011 -7.018057 1.616698 0.894268 13.170877 -7.125000 0.000000 0.000000 87.516342 -9.425705 46.271958 -19.881279 22.912577 -5.789844 1.355117 0.714720 14.010284 7.125000 0.000000 0.000000 
